# xmcd
#
# Track frame offsets: 
#        150
#        19350
#        39510
#        70230
#        90540
#        120765
#        139200
#        154395
#
# Disc length: 2239 seconds
#
# Revision: 0
# Processed by: cddbd v1.5.2PL0 Copyright (c) Steve Scherf et al.
# Submitted via: ExactAudioCopy v1.1
#
DISCID=6508bd08
DTITLE=The Bob Lanza Blues Band - Things Ain't So Bad
DYEAR=2009
DGENRE=Electric Blues, Chicago Blues
TTITLE0=Gotta Little Girl
TTITLE1=Lost In Love
TTITLE2=Can't Say No
TTITLE3=Pick Your Head Up
TTITLE4=Real Men Play Esss
TTITLE5=Why You Treat Me That Way
TTITLE6=I Cry For You
TTITLE7=Cowgirl
EXTD=
EXTT0=
EXTT1=
EXTT2=
EXTT3=
EXTT4=
EXTT5=
EXTT6=
EXTT7=
PLAYORDER=
